<svg width="25" height="30" viewBox="0 0 25 30" fill="none" xmlns="http://www.w3.org/2000/svg">
<g filter="url(#filter0_d)">
<path d="M20.3 11.1765C20.3 12.5069 19.8596 13.9886 19.1377 15.5108C18.4188 17.0266 17.442 18.5387 16.4191 19.918C14.6846 22.2568 12.8491 24.172 12 25.0208C11.1509 24.172 9.31539 22.2568 7.58092 19.918C6.55805 18.5387 5.58118 17.0266 4.86233 15.5108C4.14044 13.9886 3.7 12.5069 3.7 11.1765C3.7 8.19591 4.82869 6.09732 6.40076 4.73486C7.98966 3.35782 10.0711 2.7 12 2.7C13.9289 2.7 16.0103 3.35782 17.5992 4.73486C19.1713 6.09732 20.3 8.19591 20.3 11.1765Z" stroke="#04BFAD" stroke-width="1.4"/>
<circle cx="12" cy="11" r="3.3" stroke="#04BFAD" stroke-width="1.4"/>
</g>
<defs>
<filter id="filter0_d" x="1" y="0" width="24" height="29.9294" filterUnits="userSpaceOnUse" color-interpolation-filters="sRGB">
<feFlood flood-opacity="0" result="BackgroundImageFix"/>
<feColorMatrix in="SourceAlpha" type="matrix" values="0 0 0 0 0 0 0 0 0 0 0 0 0 0 0 0 0 0 127 0"/>
<feOffset dx="1" dy="1"/>
<feGaussianBlur stdDeviation="1.5"/>
<feColorMatrix type="matrix" values="0 0 0 0 0 0 0 0 0 0 0 0 0 0 0 0 0 0 0.1 0"/>
<feBlend mode="normal" in2="BackgroundImageFix" result="effect1_dropShadow"/>
<feBlend mode="normal" in="SourceGraphic" in2="effect1_dropShadow" result="shape"/>
</filter>
</defs>
</svg>
